<svg width="111" height="124" viewBox="0 0 111 124" fill="none" xmlns="http://www.w3.org/2000/svg">
<path d="M0 43H86V124H81C36.2649 124 0 87.7351 0 43V43Z" fill="#FDC463"/>
<path d="M56.692 69.1652C53.2482 69.1652 50.1411 68.3625 47.3705 66.7571C44.6259 65.1518 42.4509 62.9768 40.8455 60.2321C39.2402 57.4616 38.4375 54.3545 38.4375 50.9107V29.1607C38.4375 25.717 39.2402 22.6228 40.8455 19.8781C42.4509 17.1076 44.6259 14.9196 47.3705 13.3143C50.1411 11.7089 53.2482 10.9062 56.692 10.9062C60.1357 10.9062 63.2299 11.7089 65.9746 13.3143C68.7451 14.9196 70.933 17.1076 72.5384 19.8781C74.1438 22.6228 74.9464 25.717 74.9464 29.1607V50.9107C74.9464 54.3545 74.1438 57.4616 72.5384 60.2321C70.933 62.9768 68.7451 65.1518 65.9746 66.7571C63.2299 68.3625 60.1357 69.1652 56.692 69.1652ZM56.692 63.65C58.9964 63.65 61.0938 63.0933 62.9839 61.9799C64.8741 60.8406 66.3759 59.3259 67.4893 57.4357C68.6027 55.5455 69.1594 53.4612 69.1594 51.1826V28.8888C69.1594 26.5844 68.6027 24.4871 67.4893 22.5969C66.3759 20.7067 64.8741 19.2049 62.9839 18.0915C61.0938 16.9522 58.9964 16.3826 56.692 16.3826C54.3875 16.3826 52.2902 16.9522 50.4 18.0915C48.5098 19.2049 47.008 20.7067 45.8946 22.5969C44.7813 24.4871 44.2246 26.5844 44.2246 28.8888V51.1826C44.2246 53.4612 44.7813 55.5455 45.8946 57.4357C47.008 59.3259 48.5098 60.8406 50.4 61.9799C52.2902 63.0933 54.3875 63.65 56.692 63.65ZM95.5974 68V18.4411L85.072 24.7719V18.3634L95.5974 12.0714H101.384V68H95.5974Z" fill="black"/>
</svg>
