<svg width="126" height="108" viewBox="0 0 126 108" fill="none" xmlns="http://www.w3.org/2000/svg">
<path d="M0 27H86V108H81C36.2649 108 0 71.7351 0 27Z" fill="#FDC463"/>
<path d="M61.692 59.1652C58.2482 59.1652 55.1411 58.3625 52.3705 56.7571C49.6259 55.1518 47.4509 52.9768 45.8455 50.2321C44.2402 47.4616 43.4375 44.3545 43.4375 40.9107V19.1607C43.4375 15.717 44.2402 12.6228 45.8455 9.87812C47.4509 7.10758 49.6259 4.91964 52.3705 3.31428C55.1411 1.70892 58.2482 0.906247 61.692 0.906247C65.1357 0.906247 68.2299 1.70892 70.9746 3.31428C73.7451 4.91964 75.933 7.10758 77.5384 9.87812C79.1438 12.6228 79.9464 15.717 79.9464 19.1607V40.9107C79.9464 44.3545 79.1438 47.4616 77.5384 50.2321C75.933 52.9768 73.7451 55.1518 70.9746 56.7571C68.2299 58.3625 65.1357 59.1652 61.692 59.1652ZM61.692 53.65C63.9964 53.65 66.0938 53.0933 67.9839 51.9799C69.8741 50.8406 71.3759 49.3259 72.4893 47.4357C73.6027 45.5455 74.1594 43.4612 74.1594 41.1826V18.8888C74.1594 16.5844 73.6027 14.4871 72.4893 12.5969C71.3759 10.7067 69.8741 9.20491 67.9839 8.09151C66.0938 6.95223 63.9964 6.38258 61.692 6.38258C59.3875 6.38258 57.2902 6.95223 55.4 8.09151C53.5098 9.20491 52.008 10.7067 50.8946 12.5969C49.7813 14.4871 49.2246 16.5844 49.2246 18.8888V41.1826C49.2246 43.4612 49.7813 45.5455 50.8946 47.4357C52.008 49.3259 53.5098 50.8406 55.4 51.9799C57.2902 53.0933 59.3875 53.65 61.692 53.65ZM89.2952 57.9612L89.334 52.7567L114.618 29.9192C116.793 27.9513 118.23 26.0871 118.93 24.3263C119.655 22.5397 120.017 20.6754 120.017 18.7335C120.017 16.429 119.473 14.3446 118.386 12.4804C117.298 10.6161 115.835 9.14018 113.997 8.05268C112.159 6.93928 110.1 6.38258 107.822 6.38258C105.439 6.38258 103.316 6.95223 101.452 8.09151C99.5876 9.2308 98.1117 10.7326 97.0242 12.5969C95.9626 14.4612 95.4447 16.4937 95.4706 18.6946H89.6447C89.6447 15.3027 90.4474 12.2603 92.0528 9.56741C93.6581 6.87455 95.8331 4.76428 98.5778 3.2366C101.322 1.68303 104.43 0.906247 107.899 0.906247C111.291 0.906247 114.334 1.70892 117.026 3.31428C119.745 4.89374 121.881 7.04285 123.435 9.7616C125.014 12.4545 125.804 15.458 125.804 18.7723C125.804 21.1027 125.519 23.1612 124.95 24.9478C124.406 26.7085 123.538 28.3527 122.347 29.8804C121.182 31.3821 119.693 32.9357 117.881 34.5411L95.4318 54.8152L94.5385 52.4848H125.804V57.9612H89.2952Z" fill="black"/>
</svg>
