<svg width="123" height="106" viewBox="0 0 123 106" fill="none" xmlns="http://www.w3.org/2000/svg">
<path d="M0 25H86V106H81C36.2649 106 0 69.7351 0 25Z" fill="#FDC463"/>
<path d="M60.692 59.1652C57.2482 59.1652 54.1411 58.3625 51.3705 56.7571C48.6259 55.1518 46.4509 52.9768 44.8455 50.2321C43.2402 47.4616 42.4375 44.3545 42.4375 40.9107V19.1607C42.4375 15.717 43.2402 12.6228 44.8455 9.87812C46.4509 7.10758 48.6259 4.91964 51.3705 3.31428C54.1411 1.70892 57.2482 0.906247 60.692 0.906247C64.1357 0.906247 67.2299 1.70892 69.9746 3.31428C72.7451 4.91964 74.933 7.10758 76.5384 9.87812C78.1438 12.6228 78.9464 15.717 78.9464 19.1607V40.9107C78.9464 44.3545 78.1438 47.4616 76.5384 50.2321C74.933 52.9768 72.7451 55.1518 69.9746 56.7571C67.2299 58.3625 64.1357 59.1652 60.692 59.1652ZM60.692 53.65C62.9964 53.65 65.0938 53.0933 66.9839 51.9799C68.8741 50.8406 70.3759 49.3259 71.4893 47.4357C72.6027 45.5455 73.1594 43.4612 73.1594 41.1826V18.8888C73.1594 16.5844 72.6027 14.4871 71.4893 12.5969C70.3759 10.7067 68.8741 9.20491 66.9839 8.09151C65.0938 6.95223 62.9964 6.38258 60.692 6.38258C58.3875 6.38258 56.2902 6.95223 54.4 8.09151C52.5098 9.20491 51.008 10.7067 49.8946 12.5969C48.7813 14.4871 48.2246 16.5844 48.2246 18.8888V41.1826C48.2246 43.4612 48.7813 45.5455 49.8946 47.4357C51.008 49.3259 52.5098 50.8406 54.4 51.9799C56.2902 53.0933 58.3875 53.65 60.692 53.65ZM104.88 59.1263C102.109 59.1263 99.5586 58.6344 97.2282 57.6504C94.8978 56.6665 92.8912 55.2683 91.2081 53.4558C89.5251 51.6174 88.2952 49.4295 87.5184 46.892L92.9559 45.2607C93.888 48.0312 95.4157 50.1286 97.5389 51.5527C99.688 52.9768 102.109 53.6629 104.802 53.6112C107.288 53.5594 109.424 53.0027 111.21 51.9411C113.023 50.8795 114.408 49.4036 115.366 47.5134C116.324 45.6232 116.803 43.4353 116.803 40.9496C116.803 37.1433 115.69 34.0879 113.463 31.7835C111.262 29.4531 108.349 28.2879 104.724 28.2879C103.714 28.2879 102.653 28.4304 101.539 28.7152C100.426 28.9741 99.3903 29.3496 98.4322 29.8415L95.5581 25.2973L117.308 5.21741L118.24 7.54777H89.7322V2.07142H122.047V7.62544L103.093 25.7246L103.015 23.4719C106.899 22.9799 110.317 23.4201 113.269 24.7924C116.221 26.1647 118.525 28.2621 120.182 31.0844C121.865 33.8808 122.707 37.1692 122.707 40.9496C122.707 44.5228 121.93 47.6817 120.376 50.4263C118.849 53.1451 116.738 55.2812 114.046 56.8348C111.353 58.3625 108.297 59.1263 104.88 59.1263Z" fill="black"/>
</svg>
