<svg width="39" height="51" viewBox="0 0 39 51" fill="none" xmlns="http://www.w3.org/2000/svg">
<path d="M36.5412 23.0786H34.6179C34.5506 23.0786 34.4937 23.1102 34.4279 23.1167C33.8567 17.9148 31.0627 13.3871 26.9251 10.6158V1.91437C26.9251 0.856986 26.0681 0 25.0107 0H9.60725C8.54986 0 7.69287 0.856986 7.69287 1.91437V10.6154C3.05638 13.7214 0 19.0022 0 25.0018C0 31.0015 3.05638 36.2823 7.69287 39.3879V48.0889C7.69287 49.1463 8.54986 50.0037 9.60725 50.0037H25.0103C26.0681 50.0037 26.9251 49.1463 26.9251 48.0889V39.3879C31.0627 36.6165 33.8567 32.0889 34.4279 26.8866C34.4937 26.8935 34.5506 26.9251 34.6179 26.9251H36.5412C37.6032 26.9251 38.4644 26.0638 38.4644 25.0018C38.4644 23.9395 37.6032 23.0786 36.5412 23.0786ZM17.309 38.4644C9.8738 38.4644 3.84644 32.437 3.84644 25.0018C3.84644 17.5667 9.8738 11.5393 17.309 11.5393C24.7441 11.5393 30.7715 17.5667 30.7715 25.0018C30.7715 32.437 24.7441 38.4644 17.309 38.4644Z" fill="#FDC463"/>
</svg>
