<svg width="172" height="55" viewBox="0 0 172 55" fill="none" xmlns="http://www.w3.org/2000/svg">
<ellipse cx="29" cy="27.5" rx="29" ry="27.5" fill="#FDC463"/>
<path d="M29.156 0C13.0619 0 0 12.2384 0 27.3179C0 42.3974 13.0619 54.6358 29.156 54.6358C45.2501 54.6358 58.312 42.3974 58.312 27.3179C58.312 12.2384 45.2501 0 29.156 0ZM23.3248 39.611V15.0248L40.8184 27.3179L23.3248 39.611Z" fill="white"/>
<path d="M40.7585 10.5432H153.933C163.612 10.5432 171.458 18.3893 171.458 28.0679C171.458 37.7465 163.612 45.5926 153.933 45.5926H40.7585V10.5432Z" fill="white"/>
<path d="M62.3726 31.8519L59.9118 24.5003H60.8563L62.9954 30.887L65.1549 24.5003H66.0994L63.6387 31.8519H62.3726ZM66.77 25.3631V24.4237H67.6787V25.3631H66.77ZM66.77 31.8519V26.3382H67.6787V31.8519H66.77ZM71.3752 32.005C70.8612 32.005 70.4205 31.8774 70.0529 31.6221C69.6853 31.3635 69.4011 31.0146 69.2003 30.5755C69.0029 30.1365 68.9042 29.6413 68.9042 29.0899C68.9042 28.5386 69.0029 28.0433 69.2003 27.6043C69.4011 27.1652 69.6853 26.8198 70.0529 26.5679C70.4205 26.3127 70.8595 26.185 71.3701 26.185C71.8908 26.185 72.3281 26.311 72.6821 26.5628C73.0361 26.8147 73.3032 27.1601 73.4836 27.5992C73.6674 28.0382 73.7593 28.5351 73.7593 29.0899C73.7593 29.6379 73.6674 30.1331 73.4836 30.5755C73.3032 31.0146 73.0361 31.3635 72.6821 31.6221C72.3281 31.8774 71.8925 32.005 71.3752 32.005ZM71.4875 31.1729C71.8585 31.1729 72.1631 31.0844 72.4013 30.9074C72.6396 30.727 72.8148 30.4802 72.9272 30.1671C73.0429 29.8506 73.1007 29.4915 73.1007 29.0899C73.1007 28.6815 73.0429 28.3224 72.9272 28.0127C72.8148 27.6996 72.6413 27.4562 72.4064 27.2827C72.1716 27.1057 71.8738 27.0172 71.513 27.0172C71.1386 27.0172 70.8289 27.1091 70.5839 27.2929C70.3422 27.4767 70.1618 27.7251 70.0427 28.0382C69.927 28.3514 69.8691 28.7019 69.8691 29.0899C69.8691 29.4813 69.9287 29.8353 70.0478 30.1518C70.1669 30.4649 70.3456 30.7134 70.5839 30.8972C70.8255 31.081 71.1267 31.1729 71.4875 31.1729ZM73.1007 31.8519V27.7932H72.9986V24.5003H73.9125V31.8519H73.1007ZM77.7321 32.005C77.1909 32.005 76.7178 31.8859 76.3128 31.6476C75.9112 31.406 75.5981 31.0708 75.3734 30.6419C75.1488 30.2097 75.0365 29.706 75.0365 29.1308C75.0365 28.5283 75.1471 28.0076 75.3683 27.5686C75.5896 27.1261 75.8976 26.7858 76.2924 26.5475C76.6906 26.3059 77.1569 26.185 77.6912 26.185C78.246 26.185 78.7174 26.3127 79.1054 26.5679C79.4968 26.8232 79.7895 27.1874 79.9835 27.6605C80.1809 28.1335 80.266 28.6968 80.2387 29.3503H79.3198V29.0236C79.3096 28.3463 79.1717 27.8408 78.9063 27.5073C78.6408 27.1703 78.246 27.0019 77.7219 27.0019C77.1603 27.0019 76.7331 27.1823 76.4404 27.543C76.1477 27.9038 76.0014 28.4211 76.0014 29.095C76.0014 29.7451 76.1477 30.2488 76.4404 30.6062C76.7331 30.9635 77.1501 31.1422 77.6912 31.1422C78.0554 31.1422 78.3719 31.0588 78.6408 30.8921C78.9097 30.7253 79.1207 30.4854 79.2738 30.1722L80.1468 30.4734C79.9324 30.9601 79.6091 31.3379 79.1768 31.6068C78.748 31.8723 78.2664 32.005 77.7321 32.005ZM75.6951 29.3503V28.6202H79.7691V29.3503H75.6951ZM83.7238 32.005C83.1758 32.005 82.7027 31.8808 82.3045 31.6323C81.9097 31.3839 81.6051 31.0401 81.3907 30.6011C81.1763 30.162 81.0691 29.6583 81.0691 29.0899C81.0691 28.5113 81.178 28.0042 81.3958 27.5686C81.6136 27.1329 81.9216 26.7943 82.3198 26.5526C82.718 26.3076 83.186 26.185 83.7238 26.185C84.2751 26.185 84.7499 26.3093 85.1481 26.5577C85.5463 26.8028 85.851 27.1448 86.062 27.5839C86.2764 28.0195 86.3836 28.5215 86.3836 29.0899C86.3836 29.6651 86.2764 30.1722 86.062 30.6113C85.8476 31.0469 85.5412 31.389 85.143 31.6374C84.7448 31.8825 84.2717 32.005 83.7238 32.005ZM83.7238 31.1422C84.2956 31.1422 84.721 30.9516 85.0001 30.5704C85.2792 30.1892 85.4187 29.6957 85.4187 29.0899C85.4187 28.4671 85.2775 27.9719 84.995 27.6043C84.7125 27.2333 84.2888 27.0478 83.7238 27.0478C83.3392 27.0478 83.0227 27.1346 82.7742 27.3082C82.5257 27.4818 82.3403 27.7217 82.2177 28.028C82.0952 28.3343 82.0339 28.6883 82.0339 29.0899C82.0339 29.7094 82.1769 30.2063 82.4628 30.5806C82.7487 30.955 83.169 31.1422 83.7238 31.1422ZM89.5517 31.8519V24.5003H91.8184C91.8933 24.5003 92.0244 24.502 92.2116 24.5054C92.3987 24.5088 92.5774 24.5224 92.7476 24.5463C93.316 24.6211 93.7908 24.8287 94.172 25.1691C94.5566 25.506 94.8459 25.9349 95.0399 26.4556C95.2339 26.9764 95.3309 27.5498 95.3309 28.1761C95.3309 28.8023 95.2339 29.3758 95.0399 29.8965C94.8459 30.4173 94.5566 30.8478 94.172 31.1882C93.7908 31.5251 93.316 31.731 92.7476 31.8059C92.5774 31.8263 92.397 31.8399 92.2064 31.8467C92.0193 31.8502 91.8899 31.8519 91.8184 31.8519H89.5517ZM90.486 30.984H91.8184C91.9478 30.984 92.0924 30.9806 92.2524 30.9738C92.4124 30.9635 92.5519 30.9482 92.671 30.9278C93.0726 30.8529 93.3977 30.6845 93.6461 30.4224C93.8946 30.1603 94.0767 29.8336 94.1924 29.4422C94.3081 29.0508 94.366 28.6287 94.366 28.1761C94.366 27.7132 94.3064 27.2861 94.1873 26.8947C94.0716 26.5033 93.8895 26.1782 93.641 25.9196C93.3926 25.6609 93.0692 25.4958 92.671 25.4244C92.5519 25.4005 92.4107 25.3852 92.2473 25.3784C92.0839 25.3716 91.941 25.3682 91.8184 25.3682H90.486V30.984ZM98.8909 32.005C98.3497 32.005 97.8766 31.8859 97.4716 31.6476C97.07 31.406 96.7569 31.0708 96.5323 30.6419C96.3076 30.2097 96.1953 29.706 96.1953 29.1308C96.1953 28.5283 96.3059 28.0076 96.5272 27.5686C96.7484 27.1261 97.0564 26.7858 97.4512 26.5475C97.8494 26.3059 98.3157 26.185 98.85 26.185C99.4048 26.185 99.8762 26.3127 100.264 26.5679C100.656 26.8232 100.948 27.1874 101.142 27.6605C101.34 28.1335 101.425 28.6968 101.398 29.3503H100.479V29.0236C100.468 28.3463 100.331 27.8408 100.065 27.5073C99.7996 27.1703 99.4048 27.0019 98.8807 27.0019C98.3191 27.0019 97.892 27.1823 97.5993 27.543C97.3066 27.9038 97.1602 28.4211 97.1602 29.095C97.1602 29.7451 97.3066 30.2488 97.5993 30.6062C97.892 30.9635 98.3089 31.1422 98.85 31.1422C99.2142 31.1422 99.5307 31.0588 99.7996 30.8921C100.068 30.7253 100.28 30.4854 100.433 30.1722L101.306 30.4734C101.091 30.9601 100.768 31.3379 100.336 31.6068C99.9068 31.8723 99.4252 32.005 98.8909 32.005ZM96.8539 29.3503V28.6202H100.928V29.3503H96.8539ZM108.975 31.8519L108.981 28.3241C108.981 27.9123 108.87 27.5907 108.649 27.3592C108.431 27.1244 108.147 27.007 107.796 27.007C107.592 27.007 107.398 27.0546 107.214 27.1499C107.03 27.2418 106.881 27.3882 106.765 27.589C106.649 27.7864 106.591 28.0399 106.591 28.3497L106.111 28.1557C106.105 27.7643 106.185 27.4222 106.351 27.1295C106.522 26.8334 106.753 26.6037 107.046 26.4403C107.338 26.2769 107.669 26.1952 108.036 26.1952C108.611 26.1952 109.064 26.3705 109.394 26.7211C109.724 27.0682 109.889 27.5362 109.889 28.125L109.884 31.8519H108.975ZM102.38 31.8519V26.3382H103.191V27.8136H103.293V31.8519H102.38ZM105.683 31.8519L105.688 28.3599C105.688 27.9378 105.579 27.6077 105.361 27.3695C105.143 27.1278 104.854 27.007 104.493 27.007C104.136 27.007 103.846 27.1295 103.625 27.3746C103.404 27.6196 103.293 27.9446 103.293 28.3497L102.813 28.0638C102.813 27.7064 102.899 27.3865 103.069 27.104C103.239 26.8215 103.47 26.6003 103.763 26.4403C104.056 26.2769 104.388 26.1952 104.759 26.1952C105.13 26.1952 105.453 26.2735 105.729 26.4301C106.004 26.5867 106.217 26.8113 106.367 27.104C106.516 27.3933 106.591 27.7387 106.591 28.1403L106.586 31.8519H105.683ZM113.518 32.005C112.97 32.005 112.497 31.8808 112.098 31.6323C111.704 31.3839 111.399 31.0401 111.185 30.6011C110.97 30.162 110.863 29.6583 110.863 29.0899C110.863 28.5113 110.972 28.0042 111.19 27.5686C111.407 27.1329 111.715 26.7943 112.114 26.5526C112.512 26.3076 112.98 26.185 113.518 26.185C114.069 26.185 114.544 26.3093 114.942 26.5577C115.34 26.8028 115.645 27.1448 115.856 27.5839C116.07 28.0195 116.177 28.5215 116.177 29.0899C116.177 29.6651 116.07 30.1722 115.856 30.6113C115.641 31.0469 115.335 31.389 114.937 31.6374C114.539 31.8825 114.066 32.005 113.518 32.005ZM113.518 31.1422C114.089 31.1422 114.515 30.9516 114.794 30.5704C115.073 30.1892 115.213 29.6957 115.213 29.0899C115.213 28.4671 115.071 27.9719 114.789 27.6043C114.506 27.2333 114.083 27.0478 113.518 27.0478C113.133 27.0478 112.817 27.1346 112.568 27.3082C112.32 27.4818 112.134 27.7217 112.012 28.028C111.889 28.3343 111.828 28.6883 111.828 29.0899C111.828 29.7094 111.971 30.2063 112.257 30.5806C112.543 30.955 112.963 31.1422 113.518 31.1422Z" fill="black"/>
</svg>


