<svg width="186" height="24" viewBox="0 0 186 24" fill="none" xmlns="http://www.w3.org/2000/svg">
<g clip-path="url(#clip0_143_163)">
<path d="M53 17.27L59.18 21L57.54 13.97L63 9.24L55.81 8.63L53 2L50.19 8.63L43 9.24L48.46 13.97L46.82 21L53 17.27Z" fill="#323232"/>
</g>
<g clip-path="url(#clip1_143_163)">
<path d="M174 17.27L180.18 21L178.54 13.97L184 9.24L176.81 8.63L174 2L171.19 8.63L164 9.24L169.46 13.97L167.82 21L174 17.27Z" fill="#323232"/>
</g>
<g clip-path="url(#clip2_143_163)">
<path d="M135 17.27L141.18 21L139.54 13.97L145 9.24L137.81 8.63L135 2L132.19 8.63L125 9.24L130.46 13.97L128.82 21L135 17.27Z" fill="#323232"/>
</g>
<g clip-path="url(#clip3_143_163)">
<path d="M94 17.27L100.18 21L98.54 13.97L104 9.24L96.81 8.63L94 2L91.19 8.63L84 9.24L89.46 13.97L87.82 21L94 17.27Z" fill="#323232"/>
</g>
<g clip-path="url(#clip4_143_163)">
<path d="M12 17.27L18.18 21L16.54 13.97L22 9.24L14.81 8.63L12 2L9.19 8.63L2 9.24L7.46 13.97L5.82 21L12 17.27Z" fill="#323232"/>
</g>
<defs>
<clipPath id="clip0_143_163">
<rect width="24" height="24" fill="white" transform="translate(41)"/>
</clipPath>
<clipPath id="clip1_143_163">
<rect width="24" height="24" fill="white" transform="translate(162)"/>
</clipPath>
<clipPath id="clip2_143_163">
<rect width="24" height="24" fill="white" transform="translate(123)"/>
</clipPath>
<clipPath id="clip3_143_163">
<rect width="24" height="24" fill="white" transform="translate(82)"/>
</clipPath>
<clipPath id="clip4_143_163">
<rect width="24" height="24" fill="white"/>
</clipPath>
</defs>
</svg>
